# xmcd CD database file
#
# Track frame offsets:
#	150
#	19497
#	41122
#	70750
#	102129
#	152960
#	171895
#	186742
#	207952
#	249947
#
# Disc length: 3647 seconds
#
# Revision: 0
# Processed by: cddbd v1.5.1PL0 Copyright (c) Steve Scherf et al.
# Submitted via: CDex 1.51
#
DISCID=8e0e3d0a
DTITLE=gianmarco silvi - dance of the whales
DYEAR=1999
DGENRE=New Age
TTITLE0=dawn on the ocean
TTITLE1=dance of the whales
TTITLE2=dancing with the waves
TTITLE3=whale jumps
TTITLE4=the white whale
TTITLE5=westerly breeze
TTITLE6=blue giant
TTITLE7=whale song
TTITLE8=mermaids voices
TTITLE9=migration
EXTD=YEAR: 1999
EXTT0=
EXTT1=
EXTT2=
EXTT3=
EXTT4=
EXTT5=
EXTT6=
EXTT7=
EXTT8=
EXTT9=
PLAYORDER=
